# xmcd
#
# Track frame offsets:
# 150
# 3966
# 6790
# 12938
# 26229
# 34387
# 46265
# 52839
# 64105
# 64410
# 64715
# 65020
# 65325
# 65630
# 65935
# 66240
# 66545
# 66850
# 67155
# 67460
# 67765
# 68070
# 68375
# 68680
# 68985
# 69290
# 69595
# 69900
# 70205
# 70510
# 70815
# 71120
# 71425
# 71730
# 72035
# 72340
#
# Disc length: 1708 seconds
#
#
# Revision: 0
# Processed by: cddbd v1.5.1PL2 Copyright (c) Steve Scherf et al.
# Submitted via: FreeRIP 2.943 
#
DISCID=4b06aa24
DTITLE=Gezoleen - Black Spaces Between Stars
DYEAR=2005
DGENRE=Merengue
TTITLE0=the Pillow Over Face Corporation
TTITLE1=To Paint A Man
TTITLE2=Sndnthy
TTITLE3=Interspecies Disappointment
TTITLE4=Phoning It In From the Subconscious
TTITLE5=Black Spaces Between Stars
TTITLE6=Suit Dissolves Flesh
TTITLE7=Trnsmssnntrcptdnddcdd
TTITLE8=untitled01
TTITLE9=untitled02
TTITLE10=untitled03
TTITLE11=untitled04
TTITLE12=untitled05
TTITLE13=untitled06
TTITLE14=untitled07
TTITLE15=untitled08
TTITLE16=untitled09
TTITLE17=untitled10
TTITLE18=untitled11
TTITLE19=untitled12
TTITLE20=untitled13
TTITLE21=untitled14
TTITLE22=untitled15
TTITLE23=untitled16
TTITLE24=untitled17
TTITLE25=untitled18
TTITLE26=untitled19
TTITLE27=untitled20
TTITLE28=untitled21
TTITLE29=untitled22
TTITLE30=untitled23
TTITLE31=untitled24
TTITLE32=untitled25
TTITLE33=untitled26
TTITLE34=untitled27
TTITLE35=dazzling killmen cover
EXTD=ripped/spread by cleve
EXTT0=
EXTT1=
EXTT2=
EXTT3=
EXTT4=
EXTT5=
EXTT6=
EXTT7=
EXTT8=
EXTT9=
EXTT10=
EXTT11=
EXTT12=
EXTT13=
EXTT14=
EXTT15=
EXTT16=
EXTT17=
EXTT18=
EXTT19=
EXTT20=
EXTT21=
EXTT22=
EXTT23=
EXTT24=
EXTT25=
EXTT26=
EXTT27=
EXTT28=
EXTT29=
EXTT30=
EXTT31=
EXTT32=
EXTT33=
EXTT34=
EXTT35=
PLAYORDER=
